<svg xmlns="http://www.w3.org/2000/svg" width="1600" height="1080" viewBox="0 0 1600 1080">
  <defs>
    <filter id="shadow" x="-10%" y="-10%" width="120%" height="130%"><feDropShadow dx="0" dy="8" stdDeviation="12" flood-color="#18324d" flood-opacity=".14"/></filter>
    <style>
      .title{font-family:'Malgun Gothic','Noto Sans KR',Arial,sans-serif;font-weight:700;fill:#fff}.t1{font-size:34px}.t2{font-size:18px}
      .h{font-family:'Malgun Gothic','Noto Sans KR',Arial,sans-serif;font-size:22px;font-weight:700;fill:#102a43}.s{font-family:'Malgun Gothic','Noto Sans KR',Arial,sans-serif;font-size:16px;fill:#52677d}.b{font-family:'Malgun Gothic','Noto Sans KR',Arial,sans-serif;font-size:17px;font-weight:600;fill:#17365d}.w{font-family:'Malgun Gothic','Noto Sans KR',Arial,sans-serif;font-size:17px;font-weight:700;fill:#fff}.tiny{font-family:'Malgun Gothic','Noto Sans KR',Arial,sans-serif;font-size:14px;fill:#52677d}
    </style>
  </defs>
  <rect width="1600" height="1080" fill="#f5f8fc"/>
  <rect x="0" y="0" width="1600" height="104" fill="#0b1f33"/>
  <text x="70" y="52" class="title t1">AI Factory Studio · 현재 App 화면 구조</text>
  <text x="70" y="82" class="title t2" opacity=".78">As-Is 화면 상태에 따라 하나의 App Shell이 네 가지 작업 공간으로 전환됨</text>
  <rect x="1320" y="30" rx="18" width="210" height="40" fill="#2b6cb0"/><text x="1425" y="56" text-anchor="middle" class="w">CURRENT / AS-IS</text>

  <text x="70" y="150" class="h">1. App Shell의 전환 규칙</text>
  <text x="70" y="178" class="s">상단의 전역 전체화면이 우선하며, 그 외에는 선택한 프로젝트 유형과 선택 상태가 작업 공간을 결정합니다.</text>
  <g filter="url(#shadow)">
    <rect x="70" y="208" width="330" height="70" rx="16" fill="#7158a6"/><text x="235" y="238" text-anchor="middle" class="w">전역 전체화면</text><text x="235" y="262" text-anchor="middle" class="title t2">에이전트 · 양식 · 결과물 실행</text>
    <rect x="430" y="208" width="330" height="70" rx="16" fill="#2b6cb0"/><text x="595" y="238" text-anchor="middle" class="w">프로젝트 미선택</text><text x="595" y="262" text-anchor="middle" class="title t2">Private AI Cockpit</text>
    <rect x="790" y="208" width="330" height="70" rx="16" fill="#148a88"/><text x="955" y="238" text-anchor="middle" class="w">Mega 프로젝트 선택</text><text x="955" y="262" text-anchor="middle" class="title t2">Mega Boardroom</text>
    <rect x="1150" y="208" width="380" height="70" rx="16" fill="#2f855a"/><text x="1340" y="238" text-anchor="middle" class="w">독립 프로젝트 선택</text><text x="1340" y="262" text-anchor="middle" class="title t2">Project Control Room</text>
  </g>
  <path d="M400 243H420M760 243H780M1120 243H1140" stroke="#8da6bd" stroke-width="4" stroke-linecap="round"/>

  <g filter="url(#shadow)">
    <rect x="70" y="330" width="700" height="280" rx="20" fill="#fff"/>
    <rect x="70" y="330" width="700" height="54" rx="20" fill="#6b4f93"/><rect x="70" y="364" width="700" height="20" fill="#6b4f93"/>
    <text x="100" y="365" class="w">A. 전역 전체화면 · 마스터/결과물 관리</text>
    <rect x="102" y="416" width="190" height="132" rx="14" fill="#f0ebf8"/><text x="197" y="465" text-anchor="middle" class="b">Agent Master</text><text x="197" y="493" text-anchor="middle" class="tiny">에이전트/템플릿</text><text x="197" y="516" text-anchor="middle" class="tiny">추천 파이프라인</text>
    <rect x="325" y="416" width="190" height="132" rx="14" fill="#f0ebf8"/><text x="420" y="465" text-anchor="middle" class="b">Format Master</text><text x="420" y="493" text-anchor="middle" class="tiny">출력 양식</text><text x="420" y="516" text-anchor="middle" class="tiny">프롬프트 주입</text>
    <rect x="548" y="416" width="190" height="132" rx="14" fill="#f0ebf8"/><text x="643" y="465" text-anchor="middle" class="b">Release Viewer</text><text x="643" y="493" text-anchor="middle" class="tiny">릴리스 결과물</text><text x="643" y="516" text-anchor="middle" class="tiny">문서/코드 확인</text>
    <text x="102" y="582" class="s">프로젝트 컨텍스트보다 우선해 App 전체 영역을 대체하는 관리 화면</text>

    <rect x="800" y="330" width="730" height="280" rx="20" fill="#fff"/>
    <rect x="800" y="330" width="730" height="54" rx="20" fill="#2474bb"/><rect x="800" y="364" width="730" height="20" fill="#2474bb"/>
    <text x="830" y="365" class="w">B. 프로젝트 미선택 · Private AI Cockpit 런처</text>
    <rect x="832" y="416" width="210" height="132" rx="14" fill="#e8f2fb"/><text x="937" y="465" text-anchor="middle" class="b">새 프로젝트</text><text x="937" y="493" text-anchor="middle" class="tiny">요구사항/템플릿</text><text x="937" y="516" text-anchor="middle" class="tiny">생성 진입점</text>
    <rect x="1060" y="416" width="210" height="132" rx="14" fill="#e8f2fb"/><text x="1165" y="465" text-anchor="middle" class="b">작업 공간 탭</text><text x="1165" y="493" text-anchor="middle" class="tiny">Mega · Vault</text><text x="1165" y="516" text-anchor="middle" class="tiny">결과물 라이브러리</text>
    <rect x="1288" y="416" width="210" height="132" rx="14" fill="#e8f2fb"/><text x="1393" y="465" text-anchor="middle" class="b">공통 관리 진입</text><text x="1393" y="493" text-anchor="middle" class="tiny">지식 · MDM · 표준</text><text x="1393" y="516" text-anchor="middle" class="tiny">MCP · 운영 정보</text>
    <text x="832" y="582" class="s">프로젝트를 선택하기 전 생성·탐색·공통 데이터 관리 기능을 제공</text>
  </g>

  <g filter="url(#shadow)">
    <rect x="70" y="645" width="470" height="335" rx="20" fill="#fff"/>
    <rect x="70" y="645" width="470" height="54" rx="20" fill="#148a88"/><rect x="70" y="679" width="470" height="20" fill="#148a88"/>
    <text x="100" y="680" class="w">C. Mega Boardroom</text>
    <rect x="102" y="730" width="406" height="58" rx="12" fill="#e5f5f4"/><text x="126" y="765" class="b">Master Project · 공통 지시 / 공유 Ledger</text>
    <rect x="102" y="810" width="116" height="94" rx="12" fill="#eef8f8"/><text x="160" y="850" text-anchor="middle" class="b">Sub A</text><text x="160" y="876" text-anchor="middle" class="tiny">진행 상태</text>
    <rect x="247" y="810" width="116" height="94" rx="12" fill="#eef8f8"/><text x="305" y="850" text-anchor="middle" class="b">Sub B</text><text x="305" y="876" text-anchor="middle" class="tiny">진행 상태</text>
    <rect x="392" y="810" width="116" height="94" rx="12" fill="#eef8f8"/><text x="450" y="850" text-anchor="middle" class="b">Sub N</text><text x="450" y="876" text-anchor="middle" class="tiny">진행 상태</text>
    <text x="102" y="950" class="s">개별 하위 프로젝트 통제실로 진입 가능</text>

    <rect x="570" y="645" width="960" height="335" rx="20" fill="#fff"/>
    <rect x="570" y="645" width="960" height="54" rx="20" fill="#2f855a"/><rect x="570" y="679" width="960" height="20" fill="#2f855a"/>
    <text x="600" y="680" class="w">D. 독립 프로젝트 · Project Control Room</text>
    <rect x="602" y="726" width="896" height="34" rx="8" fill="#e8f5ec"/><text x="620" y="749" class="b">상단 프로젝트 바  ·  Workflow Strip (현재 단계/에이전트 흐름)</text>
    <rect x="602" y="782" width="190" height="128" rx="12" fill="#edf8f0"/><text x="697" y="832" text-anchor="middle" class="b">Control Panel</text><text x="697" y="860" text-anchor="middle" class="tiny">22% · 시작/중지</text><text x="697" y="882" text-anchor="middle" class="tiny">WBS/릴리스/내보내기</text>
    <rect x="812" y="782" width="342" height="128" rx="12" fill="#edf8f0"/><text x="983" y="832" text-anchor="middle" class="b">Timeline Panel</text><text x="983" y="860" text-anchor="middle" class="tiny">40% · SSE 활동/피드</text><text x="983" y="882" text-anchor="middle" class="tiny">에이전트 진행 이력</text>
    <rect x="1174" y="782" width="324" height="128" rx="12" fill="#edf8f0"/><text x="1336" y="832" text-anchor="middle" class="b">Preview Panel</text><text x="1336" y="860" text-anchor="middle" class="tiny">38% · 산출물/문서</text><text x="1336" y="882" text-anchor="middle" class="tiny">코드/미리보기/추적성</text>
    <rect x="602" y="928" width="896" height="30" rx="8" fill="#fff1dc"/><text x="620" y="950" class="b">HOTL Input · 요구사항 선택형 확인, 승인/수정 피드백, 프로젝트 문맥 슈퍼바이저 대화</text>
  </g>
  <text x="800" y="1030" text-anchor="middle" class="tiny">전역 오버레이/패널: 지식 허브 · M1 기준정보 · 업무표준 · Crosswalk/MCP · 텔레메트리 · 스킬 진화 · 서버 로그</text>
</svg>
